HIERARCHY
ROOT hip
{
  OFFSET 0 0 0
  CHANNELS 6 Xposition Yposition Zposition Zrotation Yrotation Xrotation
  JOINT abdomen
  {
    OFFSET 0 20.6881 -0.73152
    CHANNELS 3 Zrotation Xrotation Yrotation
    JOINT chest
    {
      OFFSET 0 11.7043 -0.48768
      CHANNELS 3 Zrotation Xrotation Yrotation
      JOINT neck
      {
        OFFSET 0 22.1894 -2.19456
        CHANNELS 3 Zrotation Xrotation Yrotation
        JOINT head
        {
          OFFSET -0.24384 7.07133 1.2192
          CHANNELS 3 Zrotation Xrotation Yrotation
          JOINT leftEye
          {
            OFFSET 4.14528 8.04674 8.04672
            CHANNELS 3 Zrotation Xrotation Yrotation
            End Site
            {
              OFFSET 1 0 0
            }
          }
          JOINT rightEye
          {
            OFFSET -3.6576 8.04674 8.04672
            CHANNELS 3 Zrotation Xrotation Yrotation
            End Site
            {
              OFFSET 1 0 0
            }
          }
        }
      }
      JOINT rCollar
      {
        OFFSET -2.68224 19.2634 -4.8768
        CHANNELS 3 Zrotation Xrotation Yrotation
        JOINT rShldr
        {
          OFFSET -8.77824 -1.95073 1.46304
          CHANNELS 3 Zrotation Xrotation Yrotation
          JOINT rForeArm
          {
            OFFSET -28.1742 -1.7115 0.48768
            CHANNELS 3 Zrotation Xrotation Yrotation
            JOINT rHand
            {
              OFFSET -22.5879 0.773209 7.07136
              CHANNELS 3 Zrotation Xrotation Yrotation
              JOINT rThumb1
              {
                OFFSET -1.2192 -0.487915 3.41376
                CHANNELS 3 Zrotation Xrotation Yrotation
                JOINT rThumb2
                {
                  OFFSET -3.37035 -0.52449 3.41376
                  CHANNELS 3 Zrotation Xrotation Yrotation
                  End Site
                  {
                    OFFSET -1.78271 -1.18214 1.43049
                  }
                }
              }
              JOINT rIndex1
              {
                OFFSET -7.75947 0.938293 5.60832
                CHANNELS 3 Zrotation Xrotation Yrotation
                JOINT rIndex2
                {
                  OFFSET -2.54057 -0.884171 1.56538
                  CHANNELS 3 Zrotation Xrotation Yrotation
                  End Site
                  {
                    OFFSET -1.62519 -0.234802 1.16502
                  }
                }
              }
              JOINT rMid1
              {
                OFFSET -8.24714 1.18213 3.41376
                CHANNELS 3 Zrotation Xrotation Yrotation
                JOINT rMid2
                {
                  OFFSET -3.10165 -0.590103 1.0647
                  CHANNELS 3 Zrotation Xrotation Yrotation
                  End Site
                  {
                    OFFSET -2.48547 -0.328903 0.83742
                  }
                }
              }
              JOINT rRing1
              {
                OFFSET -8.82822 0.546677 1.51678
                CHANNELS 3 Zrotation Xrotation Yrotation
                JOINT rRing2
                {
                  OFFSET -2.60934 -0.819778 -0.0198488
                  CHANNELS 3 Zrotation Xrotation Yrotation
                  End Site
                  {
                    OFFSET -2.33842 -0.294052 0.168128
                  }
                }
              }
              JOINT rPinky1
              {
                OFFSET -8.27202 -0.0477905 -0.4584
                CHANNELS 3 Zrotation Xrotation Yrotation
                JOINT rPinky2
                {
                  OFFSET -1.82734 -0.647385 -0.700984
                  CHANNELS 3 Zrotation Xrotation Yrotation
                  End Site
                  {
                    OFFSET -1.69225 -0.51767 -0.607171
                  }
                }
              }
            }
          }
        }
      }
      JOINT lCollar
      {
        OFFSET 2.68224 19.2634 -4.8768
        CHANNELS 3 Zrotation Xrotation Yrotation
        JOINT lShldr
        {
          OFFSET 8.77824 -1.95073 1.46304
          CHANNELS 3 Zrotation Xrotation Yrotation
          JOINT lForeArm
          {
            OFFSET 28.1742 -1.7115 0.48768
            CHANNELS 3 Zrotation Xrotation Yrotation
            JOINT lHand
            {
              OFFSET 22.5879 0.773209 7.07136
              CHANNELS 3 Zrotation Xrotation Yrotation
              JOINT lThumb1
              {
                OFFSET 1.2192 -0.487915 3.41376
                CHANNELS 3 Zrotation Xrotation Yrotation
                JOINT lThumb2
                {
                  OFFSET 3.37035 -0.52449 3.41376
                  CHANNELS 3 Zrotation Xrotation Yrotation
                  End Site
                  {
                    OFFSET 1.78271 -1.18214 1.43049
                  }
                }
              }
              JOINT lIndex1
              {
                OFFSET 7.75947 0.938293 5.60832
                CHANNELS 3 Zrotation Xrotation Yrotation
                JOINT lIndex2
                {
                  OFFSET 2.54057 -0.884171 1.56538
                  CHANNELS 3 Zrotation Xrotation Yrotation
                  End Site
                  {
                    OFFSET 1.62519 -0.234802 1.16502
                  }
                }
              }
              JOINT lMid1
              {
                OFFSET 8.24714 1.18213 3.41376
                CHANNELS 3 Zrotation Xrotation Yrotation
                JOINT lMid2
                {
                  OFFSET 3.10165 -0.590103 1.0647
                  CHANNELS 3 Zrotation Xrotation Yrotation
                  End Site
                  {
                    OFFSET 2.48547 -0.328903 0.83742
                  }
                }
              }
              JOINT lRing1
              {
                OFFSET 8.82822 0.546677 1.51678
                CHANNELS 3 Zrotation Xrotation Yrotation
                JOINT lRing2
                {
                  OFFSET 2.60934 -0.819778 -0.0198488
                  CHANNELS 3 Zrotation Xrotation Yrotation
                  End Site
                  {
                    OFFSET 2.33842 -0.294052 0.168128
                  }
                }
              }
              JOINT lPinky1
              {
                OFFSET 8.27202 -0.0477905 -0.4584
                CHANNELS 3 Zrotation Xrotation Yrotation
                JOINT lPinky2
                {
                  OFFSET 1.82734 -0.647385 -0.700984
                  CHANNELS 3 Zrotation Xrotation Yrotation
                  End Site
                  {
                    OFFSET 1.69225 -0.51767 -0.607171
                  }
                }
              }
            }
          }
        }
      }
    }
  }
  JOINT rButtock
  {
    OFFSET -8.77824 4.35084 1.2192
    CHANNELS 3 Zrotation Xrotation Yrotation
    JOINT rThigh
    {
      OFFSET 0 -1.70687 -2.19456
      CHANNELS 3 Zrotation Xrotation Yrotation
      JOINT rShin
      {
        OFFSET 0 -36.8199 0.73152
        CHANNELS 3 Zrotation Xrotation Yrotation
        JOINT rFoot
        {
          OFFSET 0.73152 -45.1104 -5.12064
          CHANNELS 3 Zrotation Xrotation Yrotation
          End Site
          {
            OFFSET -1.1221 -3.69964 12.103
          }
        }
      }
    }
  }
  JOINT lButtock
  {
    OFFSET 8.77824 4.35084 1.2192
    CHANNELS 3 Zrotation Xrotation Yrotation
    JOINT lThigh
    {
      OFFSET 0 -1.70687 -2.19456
      CHANNELS 3 Zrotation Xrotation Yrotation
      JOINT lShin
      {
        OFFSET 0 -36.8199 0.73152
        CHANNELS 3 Zrotation Xrotation Yrotation
        JOINT lFoot
        {
          OFFSET -0.73152 -45.1104 -5.12064
          CHANNELS 3 Zrotation Xrotation Yrotation
          End Site
          {
            OFFSET 1.1221 -3.69964 12.103
          }
        }
      }
    }
  }
}
MOTION
Frames:	7
Frame Time:	0.00833333
1.34988 80.6462 -90.7552 -361.564 -16.5931 -345.285 8.27573 -11.5459 8.74634 -5.79797 -4.70624 1.96799 23.2171 18.9563 17.0322 -28.2231 -5.33182 32.5826 -0.0 0.0 0.0 -0.0 0.0 0.0 -8.3527e-14 -1.31472e-13 -3.0684e-13 84.016 12.6959 -24.3998 -11.2425 -4.93097 20.1543 -1.09174 28.2661 4.33269 1.54742e-09 -1.54263e-10 -2.43947e-10 2.65905e-09 -2.57754e-10 -4.56138e-10 1.54742e-09 -1.54265e-10 -2.4395e-10 7.73091 5.47488 0.417314 1.54742e-09 -1.54265e-10 -2.43942e-10 2.90554 0.965183 0.102902 1.54743e-09 -1.54265e-10 -2.43948e-10 10.2786 0.731801 0.0259123 1.54742e-09 -1.54267e-10 -2.43942e-10 2.22167 -0.733487 -0.20892 -8.38179e-14 -1.31473e-13 -3.07045e-13 -87.7159 46.4026 31.8798 28.4079 -34.4686 -74.4699 0.903492 25.9543 -3.92216 -1.34381e-09 6.69232e-09 1.23916e-09 -2.29497e-09 1.16117e-08 2.16184e-09 -1.34382e-09 6.69232e-09 1.23916e-09 -7.73091 5.47488 -0.417314 -1.34381e-09 6.69231e-09 1.23916e-09 -2.90554 0.965183 -0.102902 -1.34382e-09 6.69232e-09 1.23915e-09 -10.2786 0.731801 -0.0259123 -1.34381e-09 6.69232e-09 1.23914e-09 -2.22167 -0.733487 0.20892 -2.03217e-16 0.0 -3.88251e-19 12.5926 -16.051 0.925967 -0.0493468 32.5433 1.4576 -17.9064 -25.4729 -30.5496 2.03217e-16 0.0 3.88251e-19 6.33824 -55.0122 12.2827 0.405338 44.7692 -1.05763 7.0319 -10.6865 23.2157
1.38252 80.6779 -90.9366 -361.549 -16.7396 -345.386 8.34815 -11.5387 8.72344 -5.77487 -4.65559 1.96311 23.227 18.8773 17.073 -28.4459 -5.59282 32.5829 -0.0 0.0 0.0 -0.0 0.0 0.0 -9.9215e-14 9.76551e-14 -7.63997e-14 83.9285 13.6753 -24.1799 -11.5633 -5.14599 20.7701 -0.885825 25.6805 3.8745 1.78676e-09 -5.38009e-12 -1.84453e-10 3.07849e-09 -4.88064e-12 -3.55241e-10 1.78677e-09 -5.37921e-12 -1.84458e-10 7.73091 5.47488 0.417314 1.78676e-09 -5.3789e-12 -1.84449e-10 2.90554 0.965183 0.102902 1.78677e-09 -5.37861e-12 -1.84453e-10 10.2786 0.731801 0.0259123 1.78676e-09 -5.37957e-12 -1.84447e-10 2.22167 -0.733487 -0.20892 -9.95249e-14 9.76544e-14 -7.65651e-14 -87.4803 45.9469 31.6435 28.4068 -34.4322 -74.4081 0.950796 26.5639 -4.02898 4.77476e-10 -5.3044e-10 1.29018e-10 8.27298e-10 -9.65641e-10 2.12168e-10 4.77468e-10 -5.30425e-10 1.29027e-10 -7.73091 5.47488 -0.417314 4.77477e-10 -5.30434e-10 1.2902e-10 -2.90554 0.965183 -0.102902 4.77472e-10 -5.30444e-10 1.29016e-10 -10.2786 0.731801 -0.0259123 4.77479e-10 -5.30442e-10 1.29008e-10 -2.22167 -0.733487 0.20892 -2.03217e-16 0.0 -3.88251e-19 12.5448 -16.1411 0.952451 -0.05217 32.6843 1.45387 -17.7795 -25.5085 -30.3518 2.03217e-16 0.0 3.88251e-19 6.05034 -54.9438 11.3552 0.409819 44.966 -1.0657 6.75875 -10.5169 22.6229
1.41927 80.7037 -91.1181 -361.541 -16.8977 -345.465 8.42118 -11.5189 8.70803 -5.75337 -4.61258 1.96016 23.219 18.8101 17.1104 -28.6916 -5.87254 32.575 -0.0 0.0 0.0 -0.0 0.0 0.0 -1.01427e-13 2.3536e-13 5.25288e-14 83.8086 14.5756 -23.9416 -11.9032 -5.38094 21.4226 -0.695446 22.9912 3.4186 1.79722e-09 5.24474e-11 -1.79832e-10 3.10024e-09 9.21502e-11 -3.45887e-10 1.79722e-09 5.24497e-11 -1.79838e-10 7.73091 5.47488 0.417314 1.79721e-09 5.24505e-11 -1.79829e-10 2.90554 0.965183 0.102902 1.79722e-09 5.24511e-11 -1.79832e-10 10.2786 0.731801 0.0259123 1.79722e-09 5.24509e-11 -1.79825e-10 2.22167 -0.733487 -0.20892 -1.01738e-13 2.35359e-13 5.23798e-14 -87.2935 45.4727 31.422 28.4061 -34.4137 -74.3767 0.985969 26.9964 -4.10577 1.56381e-09 -4.79008e-09 -5.33004e-10 2.68976e-09 -8.38376e-09 -9.50446e-10 1.5638e-09 -4.79006e-09 -5.32991e-10 -7.73091 5.47488 -0.417314 1.56381e-09 -4.79007e-09 -5.33001e-10 -2.90554 0.965183 -0.102902 1.56381e-09 -4.79009e-09 -5.33005e-10 -10.2786 0.731801 -0.0259123 1.56382e-09 -4.79008e-09 -5.3301e-10 -2.22167 -0.733487 0.20892 -2.03217e-16 0.0 -3.88251e-19 12.4917 -16.2463 0.986638 -0.0552482 32.8377 1.45021 -17.6567 -25.5405 -30.1621 2.03217e-16 0.0 3.88251e-19 5.83581 -54.8554 10.5529 0.415228 45.1828 -1.07266 6.43224 -10.2901 21.91
1.46062 80.7255 -91.2982 -361.531 -17.0595 -345.534 8.49474 -11.4863 8.70179 -5.73285 -4.57706 1.95962 23.1898 18.7578 17.1426 -28.973 -6.17788 32.5553 -0.0 0.0 0.0 -0.0 0.0 0.0 -8.2461e-14 2.4863e-13 8.02127e-15 83.6618 15.411 -23.6822 -12.2583 -5.63191 22.1101 -0.515746 20.1058 2.94754 1.43618e-09 -9.63921e-11 -3.57915e-10 2.47651e-09 -1.65929e-10 -6.46962e-10 1.43618e-09 -9.63895e-11 -3.57923e-10 7.73091 5.47488 0.417314 1.43618e-09 -9.63889e-11 -3.57912e-10 2.90554 0.965183 0.102902 1.43619e-09 -9.63882e-11 -3.57915e-10 10.2786 0.731801 0.0259123 1.43618e-09 -9.63878e-11 -3.5791e-10 2.22167 -0.733487 -0.20892 -8.27496e-14 2.48628e-13 7.84889e-15 -87.1581 44.9727 31.209 28.4061 -34.4149 -74.3793 1.00265 27.1946 -4.14131 1.58095e-09 -4.51862e-09 -4.9544e-10 2.72059e-09 -7.91832e-09 -8.85848e-10 1.58094e-09 -4.51859e-09 -4.95422e-10 -7.73091 5.47488 -0.417314 1.58095e-09 -4.51861e-09 -4.95436e-10 -2.90554 0.965183 -0.102902 1.58094e-09 -4.51862e-09 -4.95439e-10 -10.2786 0.731801 -0.0259123 1.58096e-09 -4.51862e-09 -4.95442e-10 -2.22167 -0.733487 0.20892 -2.03217e-16 0.0 -3.88251e-19 12.4304 -16.3722 1.02836 -0.058668 33.0082 1.44658 -17.5369 -25.5677 -29.9798 2.03217e-16 0.0 3.88251e-19 5.70444 -54.7506 9.88687 0.422017 45.4341 -1.07839 6.03529 -9.98297 21.034
1.50856 80.7444 -91.4735 -361.511 -17.2238 -345.601 8.57836 -11.4398 8.70814 -5.71498 -4.54532 1.9623 23.1426 18.7136 17.1718 -29.2866 -6.50677 32.5265 -0.0 0.0 0.0 -0.0 0.0 0.0 -4.85499e-14 1.90089e-13 -1.36068e-13 83.4822 16.1891 -23.3994 -12.6273 -5.89752 22.8332 -0.359524 17.0525 2.4676 7.85304e-10 -3.76659e-10 -6.43059e-10 1.35057e-09 -6.50144e-10 -1.12819e-09 7.85304e-10 -3.76657e-10 -6.43069e-10 7.73091 5.47488 0.417314 7.85301e-10 -3.76657e-10 -6.43055e-10 2.90554 0.965183 0.102902 7.8531e-10 -3.76656e-10 -6.4306e-10 10.2786 0.731801 0.0259123 7.85304e-10 -3.76655e-10 -6.43057e-10 2.22167 -0.733487 -0.20892 -4.87987e-14 1.90085e-13 -1.36292e-13 -87.0703 44.4322 31.0061 28.407 -34.4375 -74.4173 1.00475 27.2209 -4.14597 9.8721e-10 -1.62801e-09 -5.45599e-11 1.70496e-09 -2.89627e-09 -1.13824e-10 9.87202e-10 -1.62799e-09 -5.45374e-11 -7.73091 5.47488 -0.417314 9.87209e-10 -1.62801e-09 -5.45556e-11 -2.90554 0.965183 -0.102902 9.87202e-10 -1.62802e-09 -5.45573e-11 -10.2786 0.731801 -0.0259123 9.87214e-10 -1.62802e-09 -5.45568e-11 -2.22167 -0.733487 0.20892 -2.03217e-16 0.0 -3.88251e-19 12.3657 -16.5127 1.0732 -0.0622803 33.1903 1.44292 -17.412 -25.5921 -29.7922 2.03217e-16 0.0 3.88251e-19 5.59544 -54.6444 9.25848 0.430197 45.7216 -1.08312 5.55653 -9.55348 19.9835
1.56228 80.7611 -91.6428 -361.478 -17.388 -345.673 8.66503 -11.3807 8.72069 -5.69993 -4.52046 1.96652 23.0818 18.6755 17.2005 -29.6067 -6.84569 32.4954 -0.0 0.0 0.0 -0.0 0.0 0.0 -1.23459e-14 9.4549e-14 -2.73299e-13 83.2624 16.8715 -23.0941 -13.0148 -6.18456 23.5963 -0.239534 14.0183 2.00807 1.04187e-10 -5.84657e-10 -8.04373e-10 1.72465e-10 -1.00887e-09 -1.39479e-09 1.04189e-10 -5.84656e-10 -8.04385e-10 7.73091 5.47488 0.417314 1.04185e-10 -5.84656e-10 -8.0437e-10 2.90554 0.965183 0.102902 1.04193e-10 -5.84656e-10 -8.04376e-10 10.2786 0.731801 0.0259123 1.04188e-10 -5.84654e-10 -8.04375e-10 2.22167 -0.733487 -0.20892 -1.25484e-14 9.45439e-14 -2.73574e-13 -87.0265 43.8796 30.8272 28.4085 -34.4761 -74.4812 0.999206 27.1571 -4.13445 1.90899e-10 1.78773e-09 4.46034e-10 3.4061e-10 3.04771e-09 7.65106e-10 1.90891e-10 1.78774e-09 4.46061e-10 -7.73091 5.47488 -0.417314 1.90897e-10 1.78773e-09 4.46038e-10 -2.90554 0.965183 -0.102902 1.90889e-10 1.78772e-09 4.46039e-10 -10.2786 0.731801 -0.0259123 1.90902e-10 1.78772e-09 4.46042e-10 -2.22167 -0.733487 0.20892 -2.03217e-16 0.0 -3.88251e-19 12.3007 -16.6597 1.12493 -0.0659931 33.3778 1.43938 -17.2903 -25.6152 -29.61 2.03217e-16 0.0 3.88251e-19 5.53134 -54.5257 8.71696 0.438706 46.0115 -1.08695 5.06341 -9.07404 18.8687
1.61969 80.7747 -91.801 -361.438 -17.5583 -345.756 8.74776 -11.3104 8.7331 -5.68785 -4.50557 1.9706 23.012 18.6416 17.2313 -29.9076 -7.18093 32.4691 -0.0 0.0 0.0 -0.0 0.0 0.0 1.34983e-14 -3.17803e-15 -2.97233e-13 82.9962 17.4188 -22.7667 -13.4247 -6.49949 24.4035 -0.156105 11.1909 1.59329 -3.47565e-10 -5.16691e-10 -6.10969e-10 -6.07782e-10 -8.90495e-10 -1.05196e-09 -3.47563e-10 -5.1669e-10 -6.10981e-10 7.73091 5.47488 0.417314 -3.47567e-10 -5.16691e-10 -6.10965e-10 2.90554 0.965183 0.102902 -3.4756e-10 -5.16691e-10 -6.10972e-10 10.2786 0.731801 0.0259123 -3.47564e-10 -5.16689e-10 -6.10972e-10 2.22167 -0.733487 -0.20892 1.33386e-14 -3.18366e-15 -2.97531e-13 -87.0215 43.3435 30.6846 28.4106 -34.5252 -74.5617 0.993147 27.0853 -4.12156 -3.99672e-10 3.6346e-09 6.62742e-10 -6.74713e-10 6.27895e-09 1.15043e-09 -3.99679e-10 3.63461e-09 6.6277e-10 -7.73091 5.47488 -0.417314 -3.99674e-10 3.63459e-09 6.62745e-10 -2.90554 0.965183 -0.102902 -3.99682e-10 3.63459e-09 6.62748e-10 -10.2786 0.731801 -0.0259123 -3.99668e-10 3.63459e-09 6.62751e-10 -2.22167 -0.733487 0.20892 -2.03217e-16 0.0 -3.88251e-19 12.2385 -16.8054 1.18734 -0.0697201 33.5647 1.43613 -17.1804 -25.6383 -29.444 2.03217e-16 0.0 3.88251e-19 5.53452 -54.384 8.31143 0.446466 46.2695 -1.08993 4.61422 -8.62187 17.7976
